<?xml version="1.0" encoding="utf-8"?>
<!-- Generator: Adobe Illustrator 23.0.2, SVG Export Plug-In . SVG Version: 6.00 Build 0)  -->
<svg version="1.1" id="圖層_1" xmlns="http://www.w3.org/2000/svg" xmlns:xlink="http://www.w3.org/1999/xlink" x="0px" y="0px"
	 viewBox="0 0 134.14 134.15" style="enable-background:new 0 0 134.14 134.15;" xml:space="preserve">
<style type="text/css">
	.st0{fill:url(#SVGID_1_);}
</style>
<g>
	<g>
		<g>
			<linearGradient id="SVGID_1_" gradientUnits="userSpaceOnUse" x1="0" y1="67.075" x2="134.1389" y2="67.075">
				<stop  offset="0" style="stop-color:#00FFFF"/>
				<stop  offset="1" style="stop-color:#0080FF"/>
			</linearGradient>
			<path class="st0" d="M121.17,134.15c-3.32,0-6.64-1.27-9.17-3.8l-7.56-7.56c-10.96,7.39-23.87,11.36-37.38,11.36
				c-17.92,0-34.77-6.98-47.44-19.66c-26.15-26.15-26.15-68.71,0-94.87c26.16-26.16,68.71-26.16,94.87,0
				c5.07,5.07,5.07,13.28,0,18.34c-5.07,5.07-13.28,5.07-18.34,0c-7.77-7.77-18.1-12.05-29.09-12.05S45.73,30.2,37.96,37.96
				c-16.04,16.04-16.04,42.15,0,58.19c7.77,7.77,18.1,12.05,29.09,12.05s21.32-4.28,29.09-12.05c2.43-2.43,5.73-3.8,9.17-3.8l0,0
				c3.44,0,6.74,1.37,9.17,3.8l15.85,15.85c5.07,5.07,5.07,13.28,0,18.34C127.8,132.88,124.49,134.15,121.17,134.15z"/>
		</g>
	</g>
</g>
</svg>
