<?xml version="1.0" encoding="utf-8"?>
<!-- Generator: Adobe Illustrator 23.0.3, SVG Export Plug-In . SVG Version: 6.00 Build 0)  -->
<svg version="1.1" id="圖層_1" xmlns="http://www.w3.org/2000/svg" xmlns:xlink="http://www.w3.org/1999/xlink" x="0px" y="0px"
	 viewBox="0 0 273.57 46.95" style="enable-background:new 0 0 273.57 46.95;" xml:space="preserve">
<style type="text/css">
	.st0{fill:#4D4D4D;}
	.st1{clip-path:url(#SVGID_2_);fill:url(#SVGID_3_);}
	.st2{fill:url(#SVGID_4_);}
</style>
<g>
	<g>
		<path class="st0" d="M59.18,35.69l-0.45-0.12c0.41-1.01,0.64-2.07,0.69-3.19l0.47,0.03c-0.02,0.47-0.08,0.91-0.15,1.35h0.8v-2.03
			h0.51v2.03h0.87v0.49h-0.87v2.49c0.29-0.13,0.56-0.28,0.84-0.43v0.49c-0.29,0.15-0.56,0.29-0.84,0.43v3.15h-0.51v-2.91
			c-0.51,0.22-1.05,0.42-1.58,0.59l-0.12-0.5c0.58-0.15,1.15-0.34,1.7-0.57v-2.73h-0.9C59.52,34.74,59.37,35.22,59.18,35.69z
			 M63.7,31.82c-0.11,0.54-0.24,1.04-0.39,1.47h3.75c0,3.09-0.05,5-0.13,5.73c-0.1,0.86-0.61,1.28-1.51,1.28
			c-0.13,0-0.36-0.01-0.7-0.03l-0.11-0.47c0.29,0.02,0.55,0.03,0.77,0.03c0.62,0,0.98-0.32,1.07-0.97c0.07-0.59,0.1-2.28,0.12-5.09
			h-0.81c-0.21,1.64-0.5,2.91-0.88,3.84c-0.44,0.99-1.08,1.87-1.94,2.65l-0.32-0.4c0.81-0.73,1.41-1.54,1.81-2.43
			c0.4-0.91,0.68-2.14,0.87-3.66H64.4c-0.38,2.09-1.11,3.61-2.2,4.56l-0.33-0.38c1.02-0.88,1.7-2.26,2.06-4.18h-0.81
			c-0.26,0.63-0.55,1.14-0.88,1.56l-0.38-0.32c0.63-0.78,1.07-1.88,1.34-3.33L63.7,31.82z"/>
		<path class="st0" d="M70.35,35.52l-0.37,0.37c-0.38-0.45-0.89-0.91-1.54-1.41l0.37-0.35C69.42,34.58,69.94,35.05,70.35,35.52z
			 M70.38,36.8c-0.38,1.22-0.81,2.35-1.28,3.41L68.63,40c0.49-1.1,0.93-2.22,1.29-3.38L70.38,36.8z M70.55,33.08l-0.37,0.37
			c-0.38-0.4-0.88-0.81-1.51-1.25l0.36-0.36C69.63,32.26,70.14,32.66,70.55,33.08z M72.12,36.13c-0.04,1.22-0.16,2.12-0.37,2.69
			c-0.24,0.61-0.63,1.12-1.16,1.54l-0.32-0.41c0.48-0.38,0.81-0.83,1.02-1.34c0.19-0.52,0.3-1.35,0.34-2.48H72.12z M73.89,31.84
			c-0.13,0.3-0.28,0.6-0.41,0.87h3.19v0.48h-3.46c-0.46,0.78-0.96,1.42-1.51,1.91c1.28-0.05,2.53-0.14,3.75-0.28
			c-0.25-0.32-0.51-0.66-0.8-0.98l0.41-0.27c0.71,0.82,1.25,1.52,1.63,2.13L76.27,36c-0.15-0.26-0.33-0.52-0.52-0.79
			c-1.5,0.17-3.03,0.28-4.61,0.33l-0.15-0.42c0.63-0.48,1.18-1.13,1.67-1.95h-1.77V32.7h2.03c0.16-0.32,0.32-0.67,0.47-1.03
			L73.89,31.84z M73.8,36.13v4.11h-0.5v-4.11H73.8z M75.1,39.43v-3.31h0.5v3.24c0,0.23,0.09,0.34,0.3,0.34h1.03v0.47h-1.18
			C75.32,40.18,75.1,39.93,75.1,39.43z"/>
		<path class="st0" d="M79.31,34.37v-1.53c-0.38,0.08-0.78,0.14-1.19,0.2l-0.1-0.48c1.07-0.12,2.02-0.35,2.83-0.68l0.18,0.48
			c-0.38,0.14-0.8,0.28-1.24,0.39v1.64h1.12v0.49h-1.12v0.42c0.34,0.37,0.7,0.79,1.06,1.26l-0.28,0.41
			c-0.3-0.49-0.57-0.87-0.79-1.18v4.57h-0.49v-4.59c-0.31,0.99-0.75,1.87-1.32,2.65l-0.21-0.53c0.69-0.89,1.18-1.89,1.46-3.01h-1.29
			v-0.49H79.31z M83.45,40.09c-0.5,0-0.74-0.26-0.74-0.75v-0.65c-0.57,0.57-1.18,1.04-1.83,1.39l-0.29-0.43
			c0.8-0.44,1.5-1.01,2.12-1.72v-4.36h0.49v3.74c0.93-1.31,1.65-3.01,2.15-5.1l0.47,0.21c-0.61,2.44-1.48,4.35-2.61,5.72v1.1
			c0,0.25,0.13,0.37,0.4,0.37h0.94c0.21,0,0.36-0.07,0.45-0.19c0.11-0.16,0.19-0.64,0.23-1.44l0.48,0.16
			c-0.06,0.9-0.17,1.46-0.34,1.68c-0.15,0.17-0.38,0.26-0.7,0.26H83.45z M82.18,34.62c-0.19,1.25-0.45,2.33-0.79,3.24l-0.43-0.28
			c0.34-0.9,0.6-1.92,0.77-3.06L82.18,34.62z M84.47,33.24l-0.35,0.35c-0.41-0.49-0.96-1.01-1.66-1.56l0.34-0.32
			C83.46,32.22,84.02,32.72,84.47,33.24z M86.5,37.38l-0.44,0.2c-0.29-0.93-0.61-1.75-0.96-2.46l0.45-0.14
			C85.91,35.73,86.23,36.52,86.5,37.38z"/>
		<path class="st0" d="M91.89,34.64v0.57h3.12v0.38h-3.12v0.59h3.8v0.4h-8.1v-0.4h3.78v-0.59h-3.09v-0.38h3.09v-0.57h-2.89v-0.38
			h2.91v-0.65h-3.79v-0.37h3.79v-0.63h-2.94v-0.4h2.92v-0.55h0.51v0.55h2.73v1h1.19v0.44h-1.19v0.99H91.89z M94.73,40.4h-0.5v-0.47
			h-5.05v0.47h-0.5v-3.22h6.06V40.4z M94.22,38.37v-0.78h-5.05v0.78H94.22z M94.22,39.51v-0.74h-5.05v0.74H94.22z M91.87,33.24h2.25
			v-0.63h-2.25V33.24z M91.87,34.26h2.25v-0.65h-2.25V34.26z"/>
		<path class="st0" d="M101.6,35.7c0.09,0.14,0.15,0.34,0.15,0.59c0,0.37-0.11,0.69-0.33,0.98c-0.22,0.27-0.5,0.45-0.86,0.54v-0.38
			c0.24-0.09,0.43-0.22,0.57-0.4c0.12-0.18,0.19-0.38,0.19-0.61c-0.04,0.02-0.1,0.03-0.2,0.03c-0.13,0-0.25-0.05-0.34-0.14
			c-0.1-0.09-0.14-0.21-0.14-0.34c0-0.15,0.05-0.28,0.14-0.36c0.08-0.09,0.21-0.13,0.37-0.13C101.34,35.47,101.48,35.55,101.6,35.7z
			"/>
		<path class="st0" d="M106.72,40.44l-0.35-0.32c0.38-0.72,0.57-1.64,0.58-2.77v-3.12c-0.08,0.09-0.14,0.17-0.22,0.25l-0.31-0.38
			c0.6-0.65,1.07-1.46,1.42-2.45l0.47,0.11c-0.08,0.24-0.17,0.47-0.27,0.68h1.75v0.37c-0.24,0.47-0.47,0.87-0.69,1.19h1.22v5.65
			c0,0.44-0.22,0.66-0.66,0.66h-0.67l-0.11-0.44c0.23,0.01,0.44,0.02,0.64,0.02c0.23,0,0.35-0.13,0.35-0.39v-1.46h-2.49
			C107.3,39.01,107.08,39.8,106.72,40.44z M109.23,32.89h-1.41c-0.21,0.4-0.45,0.77-0.69,1.11h1.43
			C108.79,33.68,109.02,33.31,109.23,32.89z M107.4,37.31c0,0.1-0.01,0.19-0.01,0.29h1.01v-1.37h-1V37.31z M108.4,34.46h-1v1.31h1
			V34.46z M109.86,34.46h-1.03v1.31h1.03V34.46z M108.84,37.6h1.03v-1.37h-1.03V37.6z M110.92,37.63l-0.3-0.37
			c0.42-0.47,0.7-1.09,0.86-1.87l0.44,0.09c-0.06,0.28-0.12,0.53-0.2,0.76h1.03v-0.92h0.5v0.92h1.5v0.48h-1.5v1.3h1.7v0.49h-1.7v1.9
			h-0.5v-1.9h-2.12v-0.49h2.12v-1.3h-1.21C111.36,37.07,111.16,37.37,110.92,37.63z M110.71,32.78v-0.46h3.88
			c-0.01,1.24-0.1,1.98-0.25,2.22c-0.15,0.25-0.43,0.37-0.82,0.37c-0.22,0-0.48-0.01-0.8-0.02l-0.12-0.45
			c0.32,0.02,0.6,0.03,0.81,0.04c0.29-0.01,0.47-0.11,0.55-0.29c0.07-0.18,0.11-0.66,0.13-1.43h-1.57
			c-0.09,0.47-0.23,0.88-0.42,1.22c-0.25,0.4-0.61,0.75-1.08,1.07l-0.29-0.39c0.44-0.27,0.77-0.59,0.99-0.96
			c0.15-0.28,0.26-0.59,0.32-0.93H110.71z"/>
		<path class="st0" d="M117.88,35.46l-0.37,0.37c-0.39-0.42-0.92-0.87-1.59-1.34l0.37-0.35C116.92,34.58,117.46,35.02,117.88,35.46z
			 M118.02,36.87c-0.45,1.2-0.95,2.32-1.5,3.38l-0.49-0.22c0.59-1.09,1.09-2.21,1.53-3.36L118.02,36.87z M118.18,33.2l-0.37,0.36
			c-0.41-0.41-0.96-0.85-1.66-1.31l0.37-0.35C117.18,32.32,117.73,32.76,118.18,33.2z M120.67,33.09V31.7h0.51v1.39h2.27v2.84h0.95
			v0.5h-3.38c-0.35,1.81-1.25,3.11-2.72,3.9l-0.31-0.41c1.36-0.7,2.2-1.86,2.52-3.49h-2.15v-0.5h2.23c0.05-0.37,0.08-0.75,0.08-1.14
			v-1.21h-1.84v-0.49H120.67z M121.18,34.68c0,0.44-0.03,0.86-0.08,1.25h1.84v-2.35h-1.77V34.68z M121.49,37.66l0.34-0.33
			c0.77,0.61,1.66,1.5,2.69,2.69l-0.36,0.36C123.22,39.27,122.32,38.37,121.49,37.66z"/>
		<path class="st0" d="M125.66,35.08l-0.32-0.39c0.9-0.8,1.62-1.8,2.15-3.01l0.5,0.12c-0.24,0.55-0.51,1.06-0.82,1.52v3.65h-0.51
			v-2.94C126.34,34.41,126.01,34.76,125.66,35.08z M127,37.6c-0.22,0.91-0.53,1.69-0.93,2.36l-0.44-0.29
			c0.39-0.64,0.68-1.36,0.87-2.18L127,37.6z M130.12,31.79c-0.12,0.29-0.26,0.56-0.4,0.81h3.88v0.32c-0.11,0.48-0.28,0.95-0.47,1.41
			l-0.47-0.13c0.17-0.34,0.3-0.71,0.42-1.12h-3.64c-0.37,0.56-0.8,1.06-1.28,1.5l-0.31-0.38c0.75-0.67,1.35-1.51,1.8-2.53
			L130.12,31.79z M128.61,40.23c-0.51,0-0.77-0.28-0.77-0.81v-2.06h0.52v1.96c0,0.28,0.13,0.42,0.41,0.42h2.18
			c0.23,0,0.38-0.06,0.48-0.16c0.12-0.14,0.21-0.56,0.25-1.25l0.48,0.16c-0.06,0.82-0.18,1.32-0.36,1.51
			c-0.15,0.15-0.4,0.23-0.74,0.23H128.61z M129.78,34.74c-0.36,0.74-0.78,1.38-1.27,1.91l-0.39-0.29c0.48-0.51,0.89-1.12,1.24-1.83
			L129.78,34.74z M130.78,38.54l-0.4,0.29c-0.28-0.46-0.66-0.95-1.13-1.49l0.39-0.25C130.14,37.65,130.52,38.13,130.78,38.54z
			 M131.12,33.58v3.41h-0.51v-3.41H131.12z M133.6,36.46l-0.45,0.23c-0.36-0.74-0.76-1.4-1.2-1.98l0.44-0.19
			C132.84,35.11,133.24,35.75,133.6,36.46z M134.06,39.43l-0.42,0.3c-0.34-0.68-0.81-1.44-1.4-2.25l0.42-0.26
			C133.27,38.06,133.74,38.81,134.06,39.43z"/>
		<path class="st0" d="M137.95,32.16v2.79h-0.92v1.66h1.07v0.49h-1.07v1.97c0.44-0.14,0.86-0.29,1.25-0.43v0.49
			c-0.91,0.36-2,0.68-3.24,0.99l-0.13-0.48c0.14-0.04,0.29-0.07,0.42-0.09v-3.54h0.46v3.42c0.27-0.08,0.52-0.15,0.77-0.22v-4.28
			h-1.21v-2.79H137.95z M137.45,32.64h-1.62v1.84h1.62V32.64z M140.25,32.8c0.14-0.36,0.26-0.72,0.34-1.1l0.47,0.06
			c-0.08,0.36-0.19,0.71-0.31,1.05h2.44v0.47h-1.6c0.4,0.86,1.04,1.53,1.94,2.02l-0.21,0.45c-1.06-0.62-1.82-1.44-2.23-2.46h-0.53
			c-0.51,1.09-1.28,1.92-2.31,2.49L138,35.32c0.89-0.51,1.57-1.2,2.02-2.05h-1.55V32.8H140.25z M143.14,36.16v0.47h-3.09l-0.3,1.08
			h2.93c-0.06,1.24-0.19,1.98-0.39,2.22c-0.19,0.23-0.58,0.34-1.15,0.34c-0.24,0-0.45-0.02-0.64-0.04l-0.17-0.45
			c0.27,0.03,0.49,0.05,0.69,0.05c0.47,0,0.76-0.1,0.88-0.28c0.09-0.19,0.17-0.65,0.23-1.39h-3l0.4-1.55h-1.05v-0.47H143.14z
			 M141.94,34.67v0.46h-2.24v-0.46H141.94z"/>
		<path class="st0" d="M147.2,38.07c-0.82,0.42-1.7,0.76-2.65,1.04l-0.13-0.55c0.36-0.09,0.71-0.18,1.05-0.29v-3.68h-1.06v-0.5h1.06
			v-2.32h0.5v2.32h0.92v0.5h-0.92v3.51c0.42-0.16,0.83-0.34,1.23-0.53V38.07z M152.22,35.19v2.9h-1.24v1.35
			c0,0.22,0.1,0.33,0.31,0.33h0.88c0.13,0,0.24-0.05,0.29-0.13c0.08-0.12,0.13-0.44,0.15-0.99l0.47,0.15
			c-0.05,0.67-0.13,1.07-0.27,1.24c-0.11,0.11-0.3,0.18-0.55,0.18h-1.11c-0.46,0-0.68-0.23-0.68-0.67v-1.46h-1.02
			c-0.11,0.59-0.36,1.06-0.72,1.42c-0.4,0.37-1.06,0.66-1.96,0.87l-0.2-0.47c0.82-0.17,1.42-0.41,1.78-0.71
			c0.31-0.29,0.52-0.65,0.63-1.1h-1.09v-2.9H152.22z M149.81,32.47c-0.09-0.28-0.19-0.53-0.29-0.77l0.53-0.09
			c0.09,0.25,0.18,0.53,0.28,0.86h2.32v0.45h-1.03c-0.09,0.4-0.23,0.77-0.4,1.13h1.7v0.45h-5.67v-0.45h1.57
			c-0.11-0.42-0.23-0.79-0.36-1.13h-0.92v-0.45H149.81z M151.74,36.44v-0.82h-3.37v0.82H151.74z M151.74,36.83h-3.37v0.83h3.37
			V36.83z M151.14,32.91h-2.15c0.11,0.34,0.23,0.71,0.34,1.13h1.38C150.91,33.68,151.05,33.3,151.14,32.91z"/>
		<path class="st0" d="M154.31,35.69l-0.45-0.12c0.41-1.01,0.64-2.07,0.69-3.19l0.47,0.03c-0.02,0.47-0.08,0.91-0.15,1.35h0.8v-2.03
			h0.51v2.03h0.87v0.49h-0.87v2.49c0.29-0.13,0.56-0.28,0.84-0.43v0.49c-0.29,0.15-0.56,0.29-0.84,0.43v3.15h-0.51v-2.91
			c-0.51,0.22-1.05,0.42-1.58,0.59l-0.12-0.5c0.58-0.15,1.15-0.34,1.7-0.57v-2.73h-0.9C154.65,34.74,154.5,35.22,154.31,35.69z
			 M158.83,31.82c-0.11,0.54-0.24,1.04-0.39,1.47h3.75c0,3.09-0.05,5-0.13,5.73c-0.1,0.86-0.61,1.28-1.51,1.28
			c-0.13,0-0.36-0.01-0.7-0.03l-0.11-0.47c0.29,0.02,0.55,0.03,0.77,0.03c0.62,0,0.98-0.32,1.07-0.97c0.07-0.59,0.1-2.28,0.12-5.09
			h-0.81c-0.21,1.64-0.5,2.91-0.88,3.84c-0.44,0.99-1.08,1.87-1.94,2.65l-0.32-0.4c0.81-0.73,1.41-1.54,1.81-2.43
			c0.4-0.91,0.68-2.14,0.87-3.66h-0.88c-0.38,2.09-1.11,3.61-2.2,4.56L157,37.97c1.02-0.88,1.7-2.26,2.06-4.18h-0.81
			c-0.26,0.63-0.55,1.14-0.88,1.56l-0.38-0.32c0.63-0.78,1.07-1.88,1.34-3.33L158.83,31.82z"/>
		<path class="st0" d="M165.48,35.52l-0.37,0.37c-0.38-0.45-0.89-0.91-1.54-1.41l0.37-0.35C164.56,34.58,165.07,35.05,165.48,35.52z
			 M165.51,36.8c-0.38,1.22-0.81,2.35-1.28,3.41L163.76,40c0.49-1.1,0.93-2.22,1.29-3.38L165.51,36.8z M165.68,33.08l-0.37,0.37
			c-0.38-0.4-0.88-0.81-1.51-1.25l0.36-0.36C164.77,32.26,165.27,32.66,165.68,33.08z M167.26,36.13c-0.04,1.22-0.16,2.12-0.37,2.69
			c-0.24,0.61-0.63,1.12-1.16,1.54l-0.32-0.41c0.48-0.38,0.81-0.83,1.02-1.34c0.19-0.52,0.3-1.35,0.34-2.48H167.26z M169.03,31.84
			c-0.13,0.3-0.28,0.6-0.41,0.87h3.19v0.48h-3.46c-0.46,0.78-0.96,1.42-1.51,1.91c1.28-0.05,2.53-0.14,3.75-0.28
			c-0.25-0.32-0.51-0.66-0.8-0.98l0.41-0.27c0.71,0.82,1.25,1.52,1.63,2.13L171.4,36c-0.15-0.26-0.33-0.52-0.52-0.79
			c-1.5,0.17-3.03,0.28-4.61,0.33l-0.15-0.42c0.63-0.48,1.18-1.13,1.67-1.95h-1.77V32.7h2.03c0.16-0.32,0.32-0.67,0.47-1.03
			L169.03,31.84z M168.93,36.13v4.11h-0.5v-4.11H168.93z M170.23,39.43v-3.31h0.5v3.24c0,0.23,0.09,0.34,0.3,0.34h1.03v0.47h-1.18
			C170.45,40.18,170.23,39.93,170.23,39.43z"/>
		<path class="st0" d="M176.28,39.79h-0.49v-0.58h-1.92v0.85h-0.49V33.4h0.86c0.2-0.54,0.34-1.11,0.43-1.7l0.52,0.07
			c-0.1,0.59-0.26,1.13-0.46,1.64h1.56V39.79z M175.78,36.01v-2.12h-1.92v2.12H175.78z M175.78,38.73v-2.25h-1.92v2.25H175.78z
			 M181.07,39.1c-0.09,0.76-0.53,1.14-1.32,1.14c-0.18,0-0.49-0.01-0.93-0.02l-0.12-0.48c0.38,0.02,0.71,0.03,1,0.03
			c0.51,0,0.81-0.29,0.88-0.85c0.08-0.57,0.11-2.24,0.13-5.01h-2.8c-0.27,0.62-0.58,1.17-0.96,1.66l-0.3-0.4
			c0.68-0.95,1.15-2.12,1.4-3.5l0.5,0.06c-0.11,0.59-0.26,1.15-0.44,1.66h3.1C181.2,36.48,181.15,38.38,181.07,39.1z M179.54,37.64
			l-0.41,0.29c-0.4-0.65-0.96-1.35-1.66-2.12l0.42-0.27C178.61,36.34,179.17,37.04,179.54,37.64z"/>
		<path class="st0" d="M186.52,33.37v-0.66h-3.8v-0.42h3.8v-0.63h0.51v0.63h3.8v0.42h-3.8v0.66h2.95v2.6h-0.4
			c0.53,0.53,0.94,0.99,1.23,1.38l-0.36,0.26c-0.13-0.2-0.29-0.41-0.48-0.62l-1.06,0.06v0.92h2.06v0.45h-2.06v1.26
			c0,0.44-0.24,0.67-0.7,0.67h-1.03l-0.1-0.48c0.34,0.02,0.67,0.04,0.97,0.04c0.23,0,0.35-0.11,0.35-0.34v-1.15h-5.83v-0.45h5.83
			v-0.89c-1.67,0.08-3.44,0.13-5.3,0.19l-0.1-0.43c1.21-0.03,2.39-0.07,3.53-0.11v-0.76h-2.95v-2.6H186.52z M186.52,34.48v-0.73
			h-2.44v0.73H186.52z M186.52,34.85h-2.44v0.71h2.44V34.85z M186.21,39.71l-0.35,0.35c-0.39-0.41-0.91-0.85-1.58-1.3l0.32-0.3
			C185.24,38.87,185.77,39.29,186.21,39.71z M187.03,34.48h2.44v-0.73h-2.44V34.48z M189.48,34.85h-2.44v0.71h2.44V34.85z
			 M189.22,36.17l0.31-0.2h-2.5v0.74l2.59-0.11C189.5,36.46,189.36,36.31,189.22,36.17z"/>
		<path class="st0" d="M195.69,31.7v1.49h1.15V31.7h0.51v1.49h0.91c0.29-0.42,0.54-0.86,0.74-1.32l0.48,0.17
			c-0.23,0.46-0.47,0.85-0.69,1.15h1.63v0.47h-8.25v-0.47h1.54c-0.16-0.41-0.36-0.79-0.61-1.13l0.48-0.18
			c0.24,0.36,0.45,0.8,0.64,1.31h0.97V31.7H195.69z M194.77,34.82c-0.15-0.3-0.34-0.6-0.55-0.86l0.48-0.17
			c0.22,0.29,0.42,0.64,0.6,1.04h1.92c0.25-0.32,0.46-0.67,0.64-1.04l0.49,0.17c-0.17,0.32-0.36,0.61-0.57,0.86h2.23v0.46h-3.45
			v0.84h2.98v0.46h-2.98v0.84h3.86v0.47h-3.86v2.52h-0.52v-2.52h-3.85v-0.47h3.85v-0.84h-2.97v-0.46h2.97v-0.84h-3.46v-0.46H194.77z
			 M194.91,38.64c-0.6,0.61-1.33,1.13-2.21,1.59l-0.31-0.41c0.86-0.43,1.58-0.92,2.17-1.49L194.91,38.64z M200.15,39.86l-0.37,0.37
			c-0.49-0.49-1.17-1.02-2.03-1.57l0.34-0.32C198.91,38.85,199.6,39.36,200.15,39.86z"/>
		<path class="st0" d="M205.24,38.13c0.23-0.08,0.45-0.14,0.67-0.2v0.5c-1.22,0.39-2.65,0.75-4.3,1.07l-0.13-0.5l0.69-0.13v-6.58
			h3.07V38.13z M204.74,34.29v-1.51h-2.06v1.51H204.74z M204.74,36.36v-1.6h-2.06v1.6H204.74z M204.74,38.27v-1.45h-2.06v1.94
			C203.4,38.62,204.08,38.44,204.74,38.27z M207.62,31.74v1.97h2.12c0,2.86-0.05,4.63-0.13,5.31c-0.09,0.83-0.57,1.25-1.41,1.25
			c-0.15,0-0.42-0.01-0.8-0.03l-0.12-0.45c0.33,0.01,0.63,0.02,0.88,0.02c0.55,0,0.87-0.32,0.96-0.95c0.08-0.53,0.11-2.09,0.13-4.66
			h-1.63v0.17c-0.03,2.75-0.71,4.75-2.04,6.03l-0.39-0.35c1.25-1.18,1.9-3.07,1.92-5.68v-0.17h-1.25v-0.5h1.25v-1.97H207.62z"/>
		<path class="st0" d="M218.8,32.24c-0.88,0.24-1.9,0.42-3.05,0.53v1.78h3.11v0.51h-3.11v1.71h3.83v0.5h-3.83v2.21
			c0,0.53-0.27,0.81-0.8,0.81h-1.47l-0.11-0.5c0.48,0.02,0.95,0.04,1.41,0.04c0.31,0,0.47-0.16,0.47-0.47v-2.08h-4.17v-0.5h4.17
			v-1.71h-3.37v-0.51h3.37v-1.73c-1.04,0.09-2.19,0.13-3.4,0.13l-0.17-0.47c2.79-0.01,5.1-0.24,6.88-0.68L218.8,32.24z"/>
	</g>
	<g>
		<defs>
			<path id="SVGID_1_" d="M8.5,4.87l7.66,18.61h-0.73l-2.5-6.12h-9.7l-2.5,6.12H0L7.66,4.87H8.5z M12.67,16.73L8.13,5.55H8.05
				L3.49,16.73H12.67z M27.18,13.7h-0.63c-0.18-1.09-0.6-1.9-1.25-2.48c-0.78-0.65-1.85-0.96-3.21-0.96c-1.15,0-2.08,0.26-2.84,0.81
				c-0.78,0.52-1.15,1.15-1.15,1.93c0,0.83,0.42,1.49,1.3,2.01c0.55,0.31,1.54,0.68,2.95,1.04c1.72,0.44,2.92,0.86,3.54,1.23
				c1.09,0.63,1.64,1.49,1.64,2.61c0,2.63-1.69,3.96-5.08,3.96c-3.28,0-5.08-1.51-5.39-4.51h0.65c0.16,1.38,0.63,2.4,1.46,3.02
				c0.73,0.57,1.82,0.86,3.28,0.86c2.95,0,4.43-1.12,4.43-3.34c0-0.94-0.5-1.64-1.43-2.14c-0.5-0.26-1.56-0.62-3.23-1.07
				c-1.56-0.42-2.66-0.83-3.26-1.2c-0.99-0.6-1.49-1.43-1.49-2.48c0-0.99,0.47-1.82,1.41-2.45c0.89-0.63,1.96-0.91,3.21-0.91
				C25.07,9.64,26.77,10.99,27.18,13.7z M39.49,13.7h-0.63c-0.18-1.09-0.6-1.9-1.25-2.48c-0.78-0.65-1.85-0.96-3.21-0.96
				c-1.15,0-2.08,0.26-2.84,0.81c-0.78,0.52-1.15,1.15-1.15,1.93c0,0.83,0.42,1.49,1.3,2.01c0.55,0.31,1.54,0.68,2.95,1.04
				c1.72,0.44,2.92,0.86,3.54,1.23c1.09,0.63,1.64,1.49,1.64,2.61c0,2.63-1.69,3.96-5.08,3.96c-3.28,0-5.08-1.51-5.39-4.51h0.65
				c0.16,1.38,0.63,2.4,1.46,3.02c0.73,0.57,1.82,0.86,3.28,0.86c2.95,0,4.43-1.12,4.43-3.34c0-0.94-0.5-1.64-1.43-2.14
				c-0.5-0.26-1.56-0.62-3.23-1.07c-1.56-0.42-2.66-0.83-3.26-1.2c-0.99-0.6-1.49-1.43-1.49-2.48c0-0.99,0.47-1.82,1.41-2.45
				c0.89-0.63,1.96-0.91,3.21-0.91C37.37,9.64,39.07,10.99,39.49,13.7z M44.31,5.86c0.16,0.16,0.26,0.34,0.26,0.6
				c0,0.23-0.1,0.44-0.26,0.6c-0.16,0.16-0.36,0.26-0.6,0.26c-0.26,0-0.44-0.1-0.6-0.26c-0.18-0.16-0.26-0.36-0.26-0.6
				c0-0.26,0.08-0.44,0.26-0.6c0.16-0.18,0.34-0.26,0.6-0.26C43.94,5.6,44.15,5.68,44.31,5.86z M44.02,10v13.47h-0.63V10H44.02z
				 M57.68,13.7h-0.63c-0.18-1.09-0.6-1.9-1.25-2.48c-0.78-0.65-1.85-0.96-3.21-0.96c-1.15,0-2.08,0.26-2.84,0.81
				c-0.78,0.52-1.15,1.15-1.15,1.93c0,0.83,0.42,1.49,1.3,2.01c0.55,0.31,1.54,0.68,2.95,1.04c1.72,0.44,2.92,0.86,3.54,1.23
				c1.09,0.63,1.64,1.49,1.64,2.61c0,2.63-1.69,3.96-5.08,3.96c-3.28,0-5.08-1.51-5.39-4.51h0.65c0.16,1.38,0.63,2.4,1.46,3.02
				c0.73,0.57,1.82,0.86,3.28,0.86c2.95,0,4.43-1.12,4.43-3.34c0-0.94-0.5-1.64-1.43-2.14c-0.5-0.26-1.56-0.62-3.23-1.07
				c-1.56-0.42-2.66-0.83-3.26-1.2c-0.99-0.6-1.49-1.43-1.49-2.48c0-0.99,0.47-1.82,1.41-2.45c0.89-0.63,1.96-0.91,3.21-0.91
				C55.57,9.64,57.26,10.99,57.68,13.7z M63.25,10h3.86v0.63h-3.86v10.11c0,0.78,0.13,1.33,0.39,1.64c0.23,0.31,0.73,0.47,1.49,0.47
				h1.67v0.63h-1.67c-0.99,0-1.67-0.26-2.03-0.73c-0.31-0.42-0.47-1.09-0.47-2.01V10.63h-3.15V10h3.15V5.94l0.62-0.29V10z
				 M79.08,11.2c0.76,0.89,1.15,2.06,1.15,3.54v8.73H79.6v-3.1c-0.57,0.86-1.33,1.62-2.29,2.27c-1.25,0.78-2.53,1.2-3.88,1.2
				c-1.25,0-2.29-0.31-3.08-0.94c-0.86-0.65-1.28-1.54-1.28-2.63c0-1.56,0.65-2.71,1.98-3.41c1.09-0.63,2.71-0.94,4.8-0.94
				l3.75-0.03V14.9c0-3.1-1.54-4.64-4.56-4.64c-1.25,0-2.32,0.26-3.15,0.83c-0.91,0.57-1.49,1.43-1.72,2.53l-0.6-0.05
				c0.26-1.28,0.89-2.27,1.9-2.94c0.94-0.68,2.14-0.99,3.57-0.99C76.83,9.64,78.19,10.16,79.08,11.2z M75.84,16.54
				c-4.12,0-6.15,1.25-6.15,3.75c0,0.89,0.34,1.62,1.04,2.14c0.68,0.52,1.62,0.78,2.76,0.78c1.51,0,2.92-0.57,4.22-1.67
				c1.25-1.04,1.88-2.11,1.88-3.15v-1.88L75.84,16.54z M93.85,15.22v8.26H93.2v-8.26c0-3.31-1.46-4.95-4.33-4.95
				c-1.3,0-2.4,0.47-3.26,1.41c-0.89,0.94-1.33,2.14-1.38,3.65v8.16h-0.62V10h0.62v2.63c0.42-0.91,1.02-1.64,1.85-2.19
				c0.83-0.55,1.75-0.81,2.79-0.81C92.18,9.64,93.85,11.49,93.85,15.22z M99.85,10h3.86v0.63h-3.86v10.11
				c0,0.78,0.13,1.33,0.39,1.64c0.23,0.31,0.73,0.47,1.49,0.47h1.67v0.63h-1.67c-0.99,0-1.67-0.26-2.03-0.73
				c-0.31-0.42-0.47-1.09-0.47-2.01V10.63h-3.15V10h3.15V5.94l0.62-0.29V10z M122.55,4.87v0.63h-2.14c-0.89,0-1.54,0.21-1.9,0.68
				c-0.39,0.42-0.57,1.15-0.57,2.14V10h4.43v0.63h-4.43v12.85h-0.63V10.63h-4.01V10h4.01V8.31c0-1.09,0.24-1.93,0.73-2.5
				c0.52-0.63,1.3-0.94,2.4-0.94H122.55z M134.67,11.88c1.02,1.3,1.54,2.94,1.54,4.87c0,1.9-0.52,3.52-1.54,4.87
				c-1.15,1.46-2.71,2.22-4.64,2.22c-1.96,0-3.49-0.76-4.64-2.22c-1.04-1.35-1.54-2.97-1.54-4.87c0-1.93,0.5-3.57,1.54-4.87
				c1.15-1.51,2.68-2.24,4.64-2.24C131.96,9.64,133.52,10.37,134.67,11.88z M125.88,12.24c-0.94,1.2-1.41,2.71-1.41,4.51
				c0,1.77,0.47,3.28,1.41,4.48c1.02,1.3,2.4,1.98,4.14,1.98c1.72,0,3.1-0.68,4.14-1.98c0.94-1.2,1.41-2.71,1.41-4.48
				c0-1.8-0.47-3.31-1.41-4.51c-1.04-1.33-2.42-1.98-4.14-1.98C128.28,10.26,126.9,10.92,125.88,12.24z M146.4,9.9v0.68
				c-0.73-0.21-1.46-0.31-2.16-0.31c-1.46,0-2.63,0.7-3.47,2.11c-0.7,1.17-1.04,2.5-1.04,3.99v7.11h-0.65V10h0.65v3
				c0.34-0.94,0.89-1.69,1.62-2.29c0.83-0.73,1.83-1.07,2.92-1.07C145.15,9.64,145.88,9.72,146.4,9.9z M169.98,6.04
				c1.51,1.09,2.37,2.55,2.58,4.33h-0.6c-0.21-1.56-0.99-2.84-2.35-3.83c-1.3-0.94-2.81-1.41-4.48-1.41c-2.5,0-4.51,0.89-6.02,2.71
				C157.71,9.56,157,11.7,157,14.3c0,2.55,0.7,4.64,2.11,6.31c1.43,1.72,3.34,2.61,5.73,2.61c1.77,0,3.31-0.5,4.64-1.49
				c1.46-1.09,2.37-2.61,2.74-4.53h0.6c-0.39,2.14-1.36,3.8-2.92,5c-1.43,1.09-3.13,1.64-5.06,1.64c-2.58,0-4.67-0.94-6.23-2.81
				c-1.51-1.8-2.24-4.04-2.24-6.72c0-2.74,0.76-5.03,2.27-6.85c1.62-1.98,3.78-2.94,6.49-2.94C166.96,4.5,168.58,5,169.98,6.04z
				 M185.18,11.2c0.76,0.89,1.15,2.06,1.15,3.54v8.73h-0.62v-3.1c-0.57,0.86-1.33,1.62-2.29,2.27c-1.25,0.78-2.53,1.2-3.88,1.2
				c-1.25,0-2.29-0.31-3.08-0.94c-0.86-0.65-1.28-1.54-1.28-2.63c0-1.56,0.65-2.71,1.98-3.41c1.09-0.63,2.71-0.94,4.8-0.94
				l3.75-0.03V14.9c0-3.1-1.54-4.64-4.56-4.64c-1.25,0-2.32,0.26-3.15,0.83c-0.91,0.57-1.49,1.43-1.72,2.53l-0.6-0.05
				c0.26-1.28,0.89-2.27,1.9-2.94c0.94-0.68,2.14-0.99,3.57-0.99C182.94,9.64,184.29,10.16,185.18,11.2z M181.95,16.54
				c-4.12,0-6.15,1.25-6.15,3.75c0,0.89,0.34,1.62,1.04,2.14c0.68,0.52,1.62,0.78,2.76,0.78c1.51,0,2.92-0.57,4.22-1.67
				c1.25-1.04,1.88-2.11,1.88-3.15v-1.88L181.95,16.54z M197.04,9.9v0.68c-0.73-0.21-1.46-0.31-2.16-0.31
				c-1.46,0-2.63,0.7-3.47,2.11c-0.7,1.17-1.04,2.5-1.04,3.99v7.11h-0.65V10h0.65v3c0.34-0.94,0.89-1.69,1.62-2.29
				c0.83-0.73,1.83-1.07,2.92-1.07C195.79,9.64,196.52,9.72,197.04,9.9z M206.19,9.9v0.68c-0.73-0.21-1.46-0.31-2.16-0.31
				c-1.46,0-2.63,0.7-3.47,2.11c-0.7,1.17-1.04,2.5-1.04,3.99v7.11h-0.65V10h0.65v3c0.34-0.94,0.89-1.69,1.62-2.29
				c0.83-0.73,1.83-1.07,2.92-1.07C204.93,9.64,205.66,9.72,206.19,9.9z M207.15,10l4.98,12.33L217.08,10h0.73l-7.51,18.63h-0.73
				l2.21-5.5L206.45,10H207.15z"/>
		</defs>
		<clipPath id="SVGID_2_">
			<use xlink:href="#SVGID_1_"  style="overflow:visible;"/>
		</clipPath>
		<linearGradient id="SVGID_3_" gradientUnits="userSpaceOnUse" x1="-0.619" y1="16.6424" x2="218.0229" y2="16.6424">
			<stop  offset="0" style="stop-color:#00FFFF"/>
			<stop  offset="1" style="stop-color:#0080FF"/>
		</linearGradient>
		<rect x="-0.62" y="4.52" class="st1" width="218.64" height="24.25"/>
	</g>
	<g>
		<g>
			<g>
				<linearGradient id="SVGID_4_" gradientUnits="userSpaceOnUse" x1="226.6201" y1="23.4774" x2="273.5711" y2="23.4774">
					<stop  offset="0" style="stop-color:#00FFFF"/>
					<stop  offset="1" style="stop-color:#0080FF"/>
				</linearGradient>
				<path class="st2" d="M269.03,46.95c-1.16,0-2.32-0.44-3.21-1.33l-2.64-2.65c-3.84,2.59-8.35,3.98-13.09,3.98
					c-6.27,0-12.17-2.44-16.6-6.88c-9.15-9.15-9.15-24.05,0-33.21c9.16-9.16,24.05-9.16,33.21,0c1.77,1.77,1.77,4.65,0,6.42
					s-4.65,1.77-6.42,0c-2.72-2.72-6.34-4.22-10.18-4.22s-7.46,1.5-10.18,4.22c-5.61,5.62-5.61,14.75,0,20.37
					c2.72,2.72,6.34,4.22,10.18,4.22s7.46-1.5,10.18-4.22c0.85-0.85,2.01-1.33,3.21-1.33l0,0c1.2,0,2.36,0.48,3.21,1.33l5.55,5.55
					c1.77,1.77,1.77,4.65,0,6.42C271.35,46.51,270.19,46.95,269.03,46.95z"/>
			</g>
		</g>
	</g>
</g>
</svg>
