<svg xmlns="http://www.w3.org/2000/svg" xmlns:xlink="http://www.w3.org/1999/xlink" viewBox="0 0 262.92 59.23"><defs><style>.cls-1{fill:none;}.cls-2{fill:#4d4d4d;}.cls-3{fill:url(#未命名漸層_4);}.cls-4{clip-path:url(#clip-path);}.cls-5{fill:url(#未命名漸層_4-2);}</style><linearGradient id="未命名漸層_4" x1="203.69" y1="29.61" x2="262.92" y2="29.61" gradientUnits="userSpaceOnUse"><stop offset="0" stop-color="aqua"/><stop offset="1" stop-color="#0080ff"/></linearGradient><clipPath id="clip-path"><path class="cls-1" d="M11.27,7.5,18,23.84h-.64l-2.2-5.38H6.65l-2.2,5.38H3.81L10.54,7.5Zm3.66,10.41L11,8.1h-.07l-4,9.81Zm12.75-2.65h-.55A3.58,3.58,0,0,0,26,13.08a4.29,4.29,0,0,0-2.82-.84,4.1,4.1,0,0,0-2.49.71,1.94,1.94,0,0,0-1,1.69,2,2,0,0,0,1.14,1.76,11.2,11.2,0,0,0,2.59.92,14,14,0,0,1,3.11,1.07A2.53,2.53,0,0,1,28,20.68c0,2.32-1.48,3.48-4.46,3.48s-4.46-1.32-4.74-4h.58a3.59,3.59,0,0,0,1.28,2.66,4.63,4.63,0,0,0,2.88.75q3.88,0,3.89-2.93a2,2,0,0,0-1.26-1.87,15.94,15.94,0,0,0-2.84-.94,11.77,11.77,0,0,1-2.86-1.06,2.42,2.42,0,0,1-1.3-2.17,2.5,2.5,0,0,1,1.24-2.15,4.7,4.7,0,0,1,2.81-.8Q27.14,11.69,27.68,15.26Zm10.81,0h-.55a3.59,3.59,0,0,0-1.1-2.18A4.28,4.28,0,0,0,34,12.24a4.13,4.13,0,0,0-2.5.71,1.94,1.94,0,0,0-1,1.69,2,2,0,0,0,1.15,1.76,11.26,11.26,0,0,0,2.58.92,14.18,14.18,0,0,1,3.12,1.07,2.53,2.53,0,0,1,1.44,2.29q0,3.48-4.46,3.48t-4.74-4h.57a3.66,3.66,0,0,0,1.28,2.66,4.64,4.64,0,0,0,2.89.75c2.58,0,3.89-1,3.89-2.93A2.05,2.05,0,0,0,37,18.81a16.57,16.57,0,0,0-2.84-.94,11.6,11.6,0,0,1-2.86-1.06A2.43,2.43,0,0,1,30,14.64a2.52,2.52,0,0,1,1.24-2.15,4.75,4.75,0,0,1,2.82-.8Q37.93,11.69,38.49,15.26Zm4.23-6.89A.71.71,0,0,1,43,8.9a.79.79,0,0,1-.75.75.71.71,0,0,1-.53-.23.65.65,0,0,1-.23-.52.79.79,0,0,1,.76-.76A.65.65,0,0,1,42.72,8.37ZM42.47,12V23.84h-.55V12Zm12,3.25h-.55a3.59,3.59,0,0,0-1.1-2.18A4.29,4.29,0,0,0,50,12.24a4.12,4.12,0,0,0-2.49.71,1.94,1.94,0,0,0-1,1.69,2,2,0,0,0,1.15,1.76,11.26,11.26,0,0,0,2.58.92,14.18,14.18,0,0,1,3.12,1.07,2.53,2.53,0,0,1,1.44,2.29q0,3.48-4.47,3.48t-4.73-4h.57a3.66,3.66,0,0,0,1.28,2.66,4.63,4.63,0,0,0,2.88.75q3.88,0,3.89-2.93A2,2,0,0,0,53,18.81a16.57,16.57,0,0,0-2.84-.94,11.6,11.6,0,0,1-2.86-1.06A2.43,2.43,0,0,1,46,14.64a2.5,2.5,0,0,1,1.24-2.15,4.74,4.74,0,0,1,2.81-.8Q53.92,11.69,54.47,15.26ZM59.37,12h3.38v.55H59.37v8.88a2.27,2.27,0,0,0,.34,1.44,1.56,1.56,0,0,0,1.3.41h1.47v.55H61a2.15,2.15,0,0,1-1.78-.64,2.93,2.93,0,0,1-.41-1.76V12.56H56.05V12h2.77V8.44l.55-.25Zm13.89,1.05a4.65,4.65,0,0,1,1,3.11v7.67h-.55V21.12a7.37,7.37,0,0,1-2,2,6.29,6.29,0,0,1-3.41,1.05,4.24,4.24,0,0,1-2.7-.82A2.76,2.76,0,0,1,64.47,21a3.14,3.14,0,0,1,1.74-3,8.66,8.66,0,0,1,4.21-.83l3.3,0v-.87c0-2.72-1.35-4.07-4-4.07a4.85,4.85,0,0,0-2.77.73,3.36,3.36,0,0,0-1.51,2.22l-.52,0a3.83,3.83,0,0,1,1.67-2.58,5.17,5.17,0,0,1,3.13-.87A4.43,4.43,0,0,1,73.26,13.06Zm-2.84,4.69c-3.61,0-5.4,1.1-5.4,3.3a2.22,2.22,0,0,0,.92,1.88,4,4,0,0,0,2.42.68,5.68,5.68,0,0,0,3.71-1.46,3.8,3.8,0,0,0,1.65-2.77V17.73Zm15.82-1.16v7.25h-.57V16.59c0-2.91-1.28-4.35-3.8-4.35A3.72,3.72,0,0,0,79,13.47a4.72,4.72,0,0,0-1.22,3.21v7.16h-.55V12h.55v2.31a4.48,4.48,0,0,1,1.63-1.92,4.32,4.32,0,0,1,2.45-.71C84.77,11.69,86.24,13.31,86.24,16.59ZM91.51,12h3.38v.55H91.51v8.88a2.27,2.27,0,0,0,.34,1.44,1.56,1.56,0,0,0,1.3.41h1.47v.55H93.15a2.15,2.15,0,0,1-1.78-.64A2.93,2.93,0,0,1,91,21.44V12.56H88.19V12H91V8.44l.55-.25ZM111.44,7.5v.55h-1.87a2,2,0,0,0-1.67.59,2.73,2.73,0,0,0-.51,1.88V12h3.89v.55h-3.89V23.84h-.55V12.56h-3.52V12h3.52V10.52a3.32,3.32,0,0,1,.64-2.2,2.57,2.57,0,0,1,2.11-.82Zm10.65,6.16a6.78,6.78,0,0,1,1.35,4.28,6.94,6.94,0,0,1-1.35,4.28,5.25,5.25,0,0,1-8.15,0,6.76,6.76,0,0,1-1.35-4.28,6.6,6.6,0,0,1,1.35-4.28,5.2,5.2,0,0,1,8.15,0Zm-7.71.32a6.2,6.2,0,0,0-1.24,4,6.18,6.18,0,0,0,1.24,3.93A4.36,4.36,0,0,0,118,23.61a4.43,4.43,0,0,0,3.64-1.74,6.18,6.18,0,0,0,1.24-3.93,6.2,6.2,0,0,0-1.24-4A4.37,4.37,0,0,0,118,12.24,4.31,4.31,0,0,0,114.38,14Zm18-2.06v.59a7,7,0,0,0-1.9-.27,3.41,3.41,0,0,0-3,1.85,6.65,6.65,0,0,0-.92,3.5v6.25H126V12h.57v2.63a4.56,4.56,0,0,1,1.42-2,3.77,3.77,0,0,1,2.56-.94A6,6,0,0,1,132.39,11.92Zm20.72-3.39a5.31,5.31,0,0,1,2.26,3.8h-.52A4.88,4.88,0,0,0,152.79,9a6.65,6.65,0,0,0-3.94-1.23,6.51,6.51,0,0,0-5.29,2.38,8.68,8.68,0,0,0-1.85,5.68,8.27,8.27,0,0,0,1.85,5.53,6.21,6.21,0,0,0,5,2.29,6.62,6.62,0,0,0,4.07-1.3,6.24,6.24,0,0,0,2.41-4h.52A6.85,6.85,0,0,1,153,22.72a7.14,7.14,0,0,1-4.44,1.44,6.76,6.76,0,0,1-5.47-2.47,8.84,8.84,0,0,1-2-5.9,9.1,9.1,0,0,1,2-6,7.5,7.5,0,0,1,10-1.24Zm13.34,4.53a4.6,4.6,0,0,1,1,3.11v7.67h-.55V21.12a7.33,7.33,0,0,1-2,2,6.31,6.31,0,0,1-3.41,1.05,4.25,4.25,0,0,1-2.71-.82A2.76,2.76,0,0,1,157.66,21a3.15,3.15,0,0,1,1.74-3,8.66,8.66,0,0,1,4.21-.83l3.3,0v-.87c0-2.72-1.35-4.07-4-4.07a4.83,4.83,0,0,0-2.77.73,3.37,3.37,0,0,0-1.52,2.22l-.52,0a3.9,3.9,0,0,1,1.67-2.58,5.2,5.2,0,0,1,3.14-.87A4.41,4.41,0,0,1,166.45,13.06Zm-2.84,4.69c-3.61,0-5.4,1.1-5.4,3.3a2.22,2.22,0,0,0,.92,1.88,4,4,0,0,0,2.42.68,5.68,5.68,0,0,0,3.71-1.46,3.8,3.8,0,0,0,1.65-2.77V17.73Zm13.26-5.83v.59a7,7,0,0,0-1.9-.27,3.41,3.41,0,0,0-3,1.85,6.65,6.65,0,0,0-.92,3.5v6.25h-.57V12H171v2.63a4.56,4.56,0,0,1,1.42-2,3.77,3.77,0,0,1,2.56-.94A6,6,0,0,1,176.87,11.92Zm8,0v.59a7,7,0,0,0-1.9-.27,3.41,3.41,0,0,0-3,1.85,6.65,6.65,0,0,0-.92,3.5v6.25h-.57V12H179v2.63a4.56,4.56,0,0,1,1.42-2,3.8,3.8,0,0,1,2.57-.94A5.93,5.93,0,0,1,184.9,11.92Zm.85.09,4.37,10.83L194.47,12h.64l-6.59,16.36h-.64l2-4.83L185.13,12Z"/></clipPath><linearGradient id="未命名漸層_4-2" x1="0" y1="21.32" x2="197.16" y2="21.32" xlink:href="#未命名漸層_4"/></defs><title>img_logo_2</title><g id="圖層_2" data-name="圖層 2"><g id="主要theme"><path class="cls-2" d="M62.37,35.65a21.43,21.43,0,0,1-.66,4.75l-.77-.22a19.13,19.13,0,0,0,.68-4.6Zm2-3.26V47.76h-.92V32.39ZM66.93,39l-.76.16a29.41,29.41,0,0,0-1.24-3.64l.71-.22A23.69,23.69,0,0,1,66.93,39ZM70.17,35V32.37h.92V35h3.6v5.14h1.44v.91H70.7A9.61,9.61,0,0,1,66,47.74L65.4,47a8.53,8.53,0,0,0,4.38-5.91H66.34v-.91H70a17.58,17.58,0,0,0,.2-2.68V35.9h-3.1V35Zm.92,2.25a20.19,20.19,0,0,1-.22,2.89H73.8V35.9H71.09Zm.49,5.4.59-.6a35.59,35.59,0,0,1,4.3,5.06l-.66.65A38.13,38.13,0,0,0,71.58,42.69Z"/><path class="cls-2" d="M82,36.66v.73a25.44,25.44,0,0,1-2.22,3.16h2.39v.63A15.71,15.71,0,0,1,81,44.77a5.41,5.41,0,0,1,.47.34,5.85,5.85,0,0,0,1.7,1.18,7.69,7.69,0,0,0,2.43.35l3.22,0c1.15,0,2.68,0,4.55-.07l-.21.88H88.94c-1.36,0-2.51,0-3.43,0A7.94,7.94,0,0,1,82.78,47a6.06,6.06,0,0,1-1.93-1.31.71.71,0,0,0-.43-.17c-.44,0-1,.75-1.78,2.28l-.66-.6c.76-1.52,1.49-2.37,2.19-2.54a16.93,16.93,0,0,0,1.08-3.29H78.62v-.71a25.57,25.57,0,0,0,2.31-3.13H78.16v-.85Zm0-1.68-.61.62a18,18,0,0,0-2.6-2.45l.63-.59A18.47,18.47,0,0,1,81.93,35Zm5.7-1.15V32.35h.87v1.48h4.36v.85H88.5v1.7h3.76V40.5H89.09a30,30,0,0,1,4,3.75l-.63.63a29.85,29.85,0,0,0-3.92-3.8v4.76h-.87V40.77a10.55,10.55,0,0,1-4.31,4.12l-.56-.73a9.56,9.56,0,0,0,4.18-3.66H83.87V36.38h3.76v-1.7H83.2v-.85Zm0,3.34h-2.9v2.51h2.9Zm3.77,0H88.5v2.51h2.9Z"/><path class="cls-2" d="M95.4,38l-.49-.73a13.34,13.34,0,0,0,3.51-4.9l.85.22A12.22,12.22,0,0,1,98.63,34h4a10.16,10.16,0,0,0-.73-1.55l.93-.15a17.68,17.68,0,0,1,.68,1.7h5.62v.81h-5.52v1.36h4.93v.75h-4.93v1.32h4.93V39h-4.93V40.4h5.83v.79H97.08V36.24A16.89,16.89,0,0,1,95.4,38Zm5,7.06a18,18,0,0,1-4.48,2.63l-.57-.73a17.85,17.85,0,0,0,4.41-2.47Zm1.82-2.25v-1h.91v1h6.76v.86h-6.76v4.23h-.91V43.62H95.35v-.86Zm.46-8H98.15c-.07.1-.13.22-.2.32v1h4.72Zm0,2.11H98v1.32h4.72Zm0,2.07H98V40.4h4.72ZM109.84,47l-.66.64A28.49,28.49,0,0,0,105,44.93l.59-.56A28.41,28.41,0,0,1,109.84,47Z"/><path class="cls-2" d="M112.34,36.7l-.27-.9a12.22,12.22,0,0,0,4.65-3.55l.76.38a10.16,10.16,0,0,1-1.73,1.88v3.8h-.92V35.22A19,19,0,0,1,112.34,36.7ZM118,46.29a20.3,20.3,0,0,1-5.47,1.47l-.42-.71a21.21,21.21,0,0,0,5.43-1.39Zm7-7.2V45.4H114.27V39.09Zm-.92,2V39.84h-8.89v1.22Zm0,1.78V41.69h-8.89v1.15Zm0,.63h-8.89v1.19h8.89ZM121,38.19c-.92,0-1.36-.42-1.36-1.27V32.41h.9V34.2l5.68-.3v.85l-5.68.29v1.69c0,.43.24.65.71.65h3.4a1.65,1.65,0,0,0,.84-.17q.34-.26.45-1.38l.83.29a2.68,2.68,0,0,1-.63,1.8,2.55,2.55,0,0,1-1.32.27Zm6.11,8.86-.29.75A41.19,41.19,0,0,0,121,46.35l.36-.66A36.69,36.69,0,0,1,127.12,47.05Z"/><path class="cls-2" d="M134.53,33.42a14.93,14.93,0,0,1-4.9,6.25l-.71-.63a14,14,0,0,0,4.75-6Zm-3.15,6.67v-.9h10q-.07,3.11-.3,5a6.07,6.07,0,0,1-.82,2.67,2.26,2.26,0,0,1-1.83.79h-3.1l-.24-.9c1,0,2,0,2.88,0a1.85,1.85,0,0,0,1.89-1.24,23.82,23.82,0,0,0,.61-5.5H136a13.1,13.1,0,0,1-1.75,4.55,11.74,11.74,0,0,1-4,3.22l-.58-.74a11.48,11.48,0,0,0,3.65-2.85A10.79,10.79,0,0,0,135,40.09Zm8.12-7.18a11.94,11.94,0,0,0,4.75,6l-.59.82a13.43,13.43,0,0,1-4.78-5.91h-2.5v-.9Z"/><path class="cls-2" d="M161,40.38v.85h-2.87v5.33c0,.83-.45,1.25-1.35,1.25h-1.72l-.2-.86c.56,0,1.1.07,1.61.07s.75-.23.75-.67V41.23H146.05v-.85Zm-.58-3.55h-.86V34.59H147.48v2.24h-.87V33.76h6.54a11.32,11.32,0,0,0-.67-1.35l1-.17a13.2,13.2,0,0,1,.63,1.52h6.36Zm-7.19-.59a2.68,2.68,0,0,0,.05-.46v-.66h.87v.66a3.57,3.57,0,0,1,0,.46h4.53v.82h-4.75a3.38,3.38,0,0,1-.27.5,36.63,36.63,0,0,1,5.31,1.8l-.47.73a32.21,32.21,0,0,0-5.35-1.92c-.15.14-.29.28-.42.38A12,12,0,0,1,148.21,40l-.49-.73a12.17,12.17,0,0,0,4.36-1.3,3.6,3.6,0,0,0,.86-.95h-4.55v-.82Zm1.48,6.26v3.65h-6.13V42.5Zm-.85.82h-4.43v2h4.43Z"/><path class="cls-2" d="M169.48,43.82c.41-.13.8-.25,1.19-.35v.88A68.42,68.42,0,0,1,163,46.27l-.23-.88,1.23-.24V33.41h5.48ZM168.59,37v-2.7H164.9V37Zm0,3.7V37.82H164.9v2.85Zm0,3.41V41.5H164.9V45C166.19,44.69,167.42,44.39,168.59,44.08Zm5.14-11.66v3.51h3.78q0,7.66-.24,9.49a2.25,2.25,0,0,1-2.51,2.22c-.27,0-.74,0-1.42,0l-.22-.8c.59,0,1.12,0,1.56,0,1,0,1.56-.58,1.71-1.7.14-1,.2-3.73.24-8.31h-2.9v.3c0,4.91-1.28,8.49-3.65,10.76l-.7-.63c2.24-2.1,3.4-5.48,3.43-10.13v-.3h-2.22v-.89h2.22V32.42Z"/><path class="cls-2" d="M193.66,33.31a35.05,35.05,0,0,1-5.44.95v3.17h5.55v.91h-5.55V41.4h6.84v.9h-6.84v3.93a1.28,1.28,0,0,1-1.43,1.45h-2.63l-.2-.89c.86,0,1.7.07,2.51.07a.76.76,0,0,0,.85-.85V42.3h-7.45v-.9h7.45V38.34h-6v-.91h6V34.34c-1.87.15-3.9.24-6.08.24l-.3-.83a52.74,52.74,0,0,0,12.28-1.23Z"/><path class="cls-3" d="M257.19,59.23a5.7,5.7,0,0,1-4.05-1.68l-3.34-3.33a29.63,29.63,0,1,1,4.44-45.56,5.73,5.73,0,1,1-8.1,8.1,18.17,18.17,0,1,0,0,25.69,5.76,5.76,0,0,1,4.05-1.68h0a5.74,5.74,0,0,1,4.05,1.68l7,7a5.73,5.73,0,0,1-4.05,9.78Z"/><g class="cls-4"><rect class="cls-5" y="3.99" width="197.16" height="34.65"/></g></g></g></svg>